{
  "asset": { "version": "2.0", "generator": "ExplorerLens corpus generator" },
  "scene": 0,
  "scenes": [{ "name": "Scene", "nodes": [0] }],
  "nodes": [{ "name": "Cube", "mesh": 0 }],
  "meshes": [{
    "name": "Cube",
    "primitives": [{
      "attributes": { "POSITION": 0 },
      "indices": 1
    }]
  }],
  "accessors": [
    {
      "bufferView": 0, "componentType": 5126, "count": 8, "type": "VEC3",
      "max": [1,1,1], "min": [-1,-1,-1]
    },
    { "bufferView": 1, "componentType": 5123, "count": 36, "type": "SCALAR" }
  ],
  "bufferViews": [
    { "buffer": 0, "byteOffset": 0,  "byteLength": 96  },
    { "buffer": 0, "byteOffset": 96, "byteLength": 72  }
  ],
  "buffers": [{ "uri": "sample_box.bin", "byteLength": 168 }]
}